STARTFONT 2.1
COMMENT Copyright (C) 1990-1991 EWT Consulting
COMMENT Portions Copyright (C) 1994-1995 Cronyx Ltd.
COMMENT Changes Copyright (C) 1996-1997 by Andrey A. Chernov, Moscow, Russia.
COMMENT Modified by Serge Vakulenko, <vak@cronyx.ru>
COMMENT Changes 1999 by Serge Winitzki.
COMMENT This software may be used, modified, copied, distributed, and sold,
COMMENT in both source and binary form provided that the copyright
COMMENT and these terms are retained. Under no circumstances is the author
COMMENT responsible for the proper functioning of this software, nor does
COMMENT the author assume any responsibility for damages incurred with its use.
COMMENT $XFree86$
FONT -Cronyx-Courier-Bold-O-Normal--20-140-100-100-M-120-KOI8-R
SIZE 14 96 96
FONTBOUNDINGBOX 17 18 -2 -4
STARTPROPERTIES 21
DEFAULT_CHAR 32
FONT_ASCENT 16
FONT_DESCENT 4
SPACING "M"
FONTNAME_REGISTRY ""
FOUNDRY "Cronyx"
FAMILY_NAME "Courier"
WEIGHT_NAME "Bold"
SLANT "O"
SETWIDTH_NAME "Normal"
ADD_STYLE_NAME ""
AVERAGE_WIDTH 120
CHARSET_REGISTRY "KOI8"
CHARSET_ENCODING "R"
PIXEL_SIZE 20
POINT_SIZE 140
RESOLUTION_X 100
RESOLUTION_Y 100
COPYRIGHT "Copyright (C) 1990, 1991 EWT Consulting, Portions Copyright (C) 1994 Cronyx Ltd., Portions Copyright (C) 1996-1997 by Andrey A. Chernov, Moscow, Russia."
_XMBDFED_INFO "Edited with xmbdfed 4.3."
_XFREE86_GLYPH_RANGES "32_126 149 154 156_158 163 179 191_255"
ENDPROPERTIES
CHARS 167
STARTCHAR space
ENCODING 32
SWIDTH 684 0
DWIDTH 13 0
BBX 0 0 -1 0
BITMAP
ENDCHAR
STARTCHAR exclam
ENCODING 33
SWIDTH 1083 0
DWIDTH 13 0
BBX 5 12 5 0
BITMAP
18
30
30
30
30
60
60
60
00
00
C0
C0
ENDCHAR
STARTCHAR quotedbl
ENCODING 34
SWIDTH 2600 0
DWIDTH 13 0
BBX 7 5 4 7
BITMAP
66
66
CC
CC
CC
ENDCHAR
STARTCHAR numbersign
ENCODING 35
SWIDTH 1083 0
DWIDTH 13 0
BBX 13 12 1 0
BITMAP
0330
0660
0660
1FF0
0CC0
1980
1980
1980
7FC0
6600
6600
6600
ENDCHAR
STARTCHAR dollar
ENCODING 36
SWIDTH 867 0
DWIDTH 13 0
BBX 11 15 2 -2
BITMAP
0300
0300
0FE0
18E0
30C0
3000
1800
0F00
0300
0180
6180
7180
FE00
1800
1800
ENDCHAR
STARTCHAR percent
ENCODING 37
SWIDTH 1083 0
DWIDTH 13 0
BBX 15 12 0 0
BITMAP
0F00
3318
3330
3360
1EC0
0300
0300
06F0
0D98
3330
6330
01E0
ENDCHAR
STARTCHAR ampersand
ENCODING 38
SWIDTH 1083 0
DWIDTH 13 0
BBX 14 12 1 0
BITMAP
07C0
18C0
1800
1800
0C00
3C00
3600
6360
61E0
C180
C3C0
7E60
ENDCHAR
STARTCHAR quotesingle
ENCODING 39
SWIDTH 2600 0
DWIDTH 13 0
BBX 3 5 6 7
BITMAP
60
60
C0
C0
C0
ENDCHAR
STARTCHAR parenleft
ENCODING 40
SWIDTH 867 0
DWIDTH 13 0
BBX 7 15 4 -3
BITMAP
06
0C
0C
18
30
30
30
30
60
60
60
60
60
60
30
ENDCHAR
STARTCHAR parenright
ENCODING 41
SWIDTH 867 0
DWIDTH 13 0
BBX 7 15 4 -3
BITMAP
18
0C
0C
06
0C
0C
0C
0C
18
18
18
18
60
60
C0
ENDCHAR
STARTCHAR asterisk
ENCODING 42
SWIDTH 2167 0
DWIDTH 13 0
BBX 9 6 3 6
BITMAP
0C00
6D80
3F00
3C00
3C00
6600
ENDCHAR
STARTCHAR plus
ENCODING 43
SWIDTH 1444 0
DWIDTH 13 0
BBX 12 9 2 1
BITMAP
0300
0300
0600
0600
7FE0
0600
0C00
0C00
0C00
ENDCHAR
STARTCHAR comma
ENCODING 44
SWIDTH 4333 0
DWIDTH 13 0
BBX 3 3 4 -1
BITMAP
60
60
C0
ENDCHAR
STARTCHAR hyphen
ENCODING 45
SWIDTH 13000 0
DWIDTH 13 0
BBX 10 1 2 4
BITMAP
FFC0
ENDCHAR
STARTCHAR period
ENCODING 46
SWIDTH 6500 0
DWIDTH 13 0
BBX 2 2 5 0
BITMAP
C0
C0
ENDCHAR
STARTCHAR slash
ENCODING 47
SWIDTH 1182 0
DWIDTH 13 0
BBX 14 11 0 0
BITMAP
000C
0018
0030
0060
0180
0300
0600
0C00
3000
6000
C000
ENDCHAR
STARTCHAR zero
ENCODING 48
SWIDTH 1083 0
DWIDTH 13 0
BBX 11 12 2 0
BITMAP
0780
1980
30C0
30C0
30C0
6180
6180
6180
6180
C300
6600
3C00
ENDCHAR
STARTCHAR one
ENCODING 49
SWIDTH 1083 0
DWIDTH 13 0
BBX 11 12 2 0
BITMAP
0700
3E00
0600
0600
0600
0C00
0C00
0C00
0C00
1800
1800
FF00
ENDCHAR
STARTCHAR two
ENCODING 50
SWIDTH 1083 0
DWIDTH 13 0
BBX 11 12 2 0
BITMAP
0780
1980
30C0
00C0
00C0
0300
0600
0C00
1800
6300
C300
FF00
ENDCHAR
STARTCHAR three
ENCODING 51
SWIDTH 1083 0
DWIDTH 13 0
BBX 11 12 2 0
BITMAP
0F80
3180
00C0
00C0
0180
0E00
0300
0180
0180
0300
C600
7C00
ENDCHAR
STARTCHAR four
ENCODING 52
SWIDTH 1083 0
DWIDTH 13 0
BBX 11 12 2 0
BITMAP
00C0
0380
0380
0780
0D80
1B00
3300
6300
7F80
0600
0600
1F00
ENDCHAR
STARTCHAR five
ENCODING 53
SWIDTH 1083 0
DWIDTH 13 0
BBX 11 12 2 0
BITMAP
1FC0
3000
3000
3000
3F00
6300
0180
0180
0180
0300
C600
7C00
ENDCHAR
STARTCHAR six
ENCODING 54
SWIDTH 1083 0
DWIDTH 13 0
BBX 11 12 2 0
BITMAP
01E0
0E00
1800
1800
3000
7E00
7300
6180
6180
C300
6600
3C00
ENDCHAR
STARTCHAR seven
ENCODING 55
SWIDTH 1083 0
DWIDTH 13 0
BBX 11 12 2 0
BITMAP
1FE0
30C0
30C0
0180
0180
0600
0600
0C00
0C00
3000
3000
3000
ENDCHAR
STARTCHAR eight
ENCODING 56
SWIDTH 1083 0
DWIDTH 13 0
BBX 11 12 2 0
BITMAP
0780
1980
30C0
30C0
1980
1E00
3300
6180
6180
C300
6600
3C00
ENDCHAR
STARTCHAR nine
ENCODING 57
SWIDTH 1083 0
DWIDTH 13 0
BBX 11 12 2 0
BITMAP
0780
1980
30C0
30C0
30C0
3380
1F80
0180
0300
0600
1C00
F000
ENDCHAR
STARTCHAR colon
ENCODING 58
SWIDTH 1444 0
DWIDTH 13 0
BBX 4 9 5 0
BITMAP
30
30
00
00
00
00
00
C0
C0
ENDCHAR
STARTCHAR semicolon
ENCODING 59
SWIDTH 1300 0
DWIDTH 13 0
BBX 5 10 4 -1
BITMAP
18
18
00
00
00
00
00
60
60
C0
ENDCHAR
STARTCHAR less
ENCODING 60
SWIDTH 1444 0
DWIDTH 13 0
BBX 8 9 4 1
BITMAP
03
06
18
30
60
30
30
18
0C
ENDCHAR
STARTCHAR equal
ENCODING 61
SWIDTH 2600 0
DWIDTH 13 0
BBX 11 5 2 3
BITMAP
7FE0
0000
0000
0000
FFC0
ENDCHAR
STARTCHAR greater
ENCODING 62
SWIDTH 1444 0
DWIDTH 13 0
BBX 8 9 4 1
BITMAP
30
18
18
0C
06
0C
30
60
C0
ENDCHAR
STARTCHAR question
ENCODING 63
SWIDTH 1083 0
DWIDTH 13 0
BBX 11 12 2 0
BITMAP
0FC0
30C0
30C0
00C0
0180
0600
0C00
0C00
0000
0000
1800
1800
ENDCHAR
STARTCHAR at
ENCODING 64
SWIDTH 929 0
DWIDTH 13 0
BBX 13 14 1 -2
BITMAP
07E0
0C30
1818
3030
33F0
3630
3630
6C60
6C60
6C60
67E0
C000
6000
3F00
ENDCHAR
STARTCHAR A
ENCODING 65
SWIDTH 1083 0
DWIDTH 13 0
BBX 15 12 0 0
BITMAP
03C0
0180
0180
03C0
03C0
0CC0
0CC0
1860
1FE0
6060
6060
F0F0
ENDCHAR
STARTCHAR B
ENCODING 66
SWIDTH 1083 0
DWIDTH 13 0
BBX 15 12 0 0
BITMAP
1FF0
0C30
0C18
0C18
0C30
1FE0
1830
1818
1818
3030
3060
FFC0
ENDCHAR
STARTCHAR C
ENCODING 67
SWIDTH 1083 0
DWIDTH 13 0
BBX 14 12 1 0
BITMAP
03FC
1C38
1818
3000
3000
6000
6000
6000
6000
6060
70E0
1F80
ENDCHAR
STARTCHAR D
ENCODING 68
SWIDTH 1083 0
DWIDTH 13 0
BBX 15 12 0 0
BITMAP
1FF0
0C38
0C18
0C0C
0C0C
1818
1818
1818
1818
3060
30E0
FF80
ENDCHAR
STARTCHAR E
ENCODING 69
SWIDTH 1083 0
DWIDTH 13 0
BBX 14 12 0 0
BITMAP
1FFC
0C18
0C18
0C00
0C60
1FC0
18C0
1800
1800
3060
3060
FFE0
ENDCHAR
STARTCHAR F
ENCODING 70
SWIDTH 1083 0
DWIDTH 13 0
BBX 14 12 1 0
BITMAP
1FFC
0C18
0C18
0C00
0C60
1FC0
18C0
1800
1800
3000
3000
FE00
ENDCHAR
STARTCHAR G
ENCODING 71
SWIDTH 1083 0
DWIDTH 13 0
BBX 15 12 0 0
BITMAP
03FC
1C38
1818
3000
3000
6000
61F8
6030
6030
6060
70E0
1F80
ENDCHAR
STARTCHAR H
ENCODING 72
SWIDTH 1083 0
DWIDTH 13 0
BBX 15 12 0 0
BITMAP
1E1E
1818
1818
1818
1818
3FF0
3030
3030
3030
6060
6060
F0F0
ENDCHAR
STARTCHAR I
ENCODING 73
SWIDTH 1083 0
DWIDTH 13 0
BBX 11 12 2 0
BITMAP
1FE0
0600
0600
0600
0600
0C00
0C00
0C00
0C00
1800
1800
FF00
ENDCHAR
STARTCHAR J
ENCODING 74
SWIDTH 1083 0
DWIDTH 13 0
BBX 13 12 1 0
BITMAP
03F8
00C0
00C0
00C0
00C0
0180
0180
0180
0180
C300
C300
7E00
ENDCHAR
STARTCHAR K
ENCODING 75
SWIDTH 1083 0
DWIDTH 13 0
BBX 15 12 0 0
BITMAP
1E7C
1860
18C0
1980
1B00
3C00
3E00
3300
3180
6180
60C0
F070
ENDCHAR
STARTCHAR L
ENCODING 76
SWIDTH 1083 0
DWIDTH 13 0
BBX 14 12 0 0
BITMAP
1FC0
0C00
0C00
0C00
0C00
1800
1800
1800
1800
3060
3060
FFE0
ENDCHAR
STARTCHAR M
ENCODING 77
SWIDTH 1083 0
DWIDTH 13 0
BBX 15 12 0 0
BITMAP
1C0E
1C38
1C38
1E78
1E78
37B0
37B0
3330
3330
6060
6060
F0F0
ENDCHAR
STARTCHAR N
ENCODING 78
SWIDTH 1083 0
DWIDTH 13 0
BBX 15 12 0 0
BITMAP
1C3E
1C18
1C18
1E18
1B18
3330
3330
31B0
30F0
60E0
60E0
F860
ENDCHAR
STARTCHAR O
ENCODING 79
SWIDTH 1083 0
DWIDTH 13 0
BBX 15 12 0 0
BITMAP
03F0
1C38
1818
300C
300C
6018
6018
6018
6018
6060
70E0
1F80
ENDCHAR
STARTCHAR P
ENCODING 80
SWIDTH 1083 0
DWIDTH 13 0
BBX 14 12 0 0
BITMAP
1FF0
0C30
0C18
0C18
0C18
1860
1FC0
1800
1800
3000
3000
FE00
ENDCHAR
STARTCHAR Q
ENCODING 81
SWIDTH 867 0
DWIDTH 13 0
BBX 15 15 0 -3
BITMAP
03F0
0E1C
0C0C
1806
300C
300C
300C
300C
6018
3030
3870
0FC0
1800
3CC0
6780
ENDCHAR
STARTCHAR R
ENCODING 82
SWIDTH 1083 0
DWIDTH 13 0
BBX 15 12 0 0
BITMAP
1FF0
0C30
0C18
0C18
0C18
1860
1FC0
1980
18C0
30C0
3060
FC30
ENDCHAR
STARTCHAR S
ENCODING 83
SWIDTH 1083 0
DWIDTH 13 0
BBX 13 12 1 0
BITMAP
07F8
1870
3030
3000
1800
1E00
0380
00C0
0060
C0C0
E180
FF00
ENDCHAR
STARTCHAR T
ENCODING 84
SWIDTH 1083 0
DWIDTH 13 0
BBX 15 12 0 0
BITMAP
1FFE
318C
318C
0180
0180
0300
0300
0300
0300
0600
0600
1F80
ENDCHAR
STARTCHAR U
ENCODING 85
SWIDTH 1083 0
DWIDTH 13 0
BBX 15 12 0 0
BITMAP
1E1E
1818
1818
1818
1818
3030
3030
3030
3030
6060
30C0
1F80
ENDCHAR
STARTCHAR V
ENCODING 86
SWIDTH 1083 0
DWIDTH 13 0
BBX 15 12 0 0
BITMAP
1E1E
1818
1818
0C30
0C30
0CC0
0CC0
0CC0
0780
0F00
0600
0600
ENDCHAR
STARTCHAR W
ENCODING 87
SWIDTH 1083 0
DWIDTH 13 0
BBX 15 12 0 0
BITMAP
1C0E
300C
300C
318C
318C
37B0
37B0
3CF0
3CF0
30C0
30C0
30C0
ENDCHAR
STARTCHAR X
ENCODING 88
SWIDTH 1083 0
DWIDTH 13 0
BBX 15 12 0 0
BITMAP
1F3E
1818
0C30
0660
03C0
0300
0300
0780
0CC0
30C0
6060
F9F0
ENDCHAR
STARTCHAR Y
ENCODING 89
SWIDTH 1083 0
DWIDTH 13 0
BBX 15 12 0 0
BITMAP
1E1E
1818
1818
0C30
0660
0780
0300
0300
0300
0600
0600
1F80
ENDCHAR
STARTCHAR Z
ENCODING 90
SWIDTH 1083 0
DWIDTH 13 0
BBX 13 12 1 0
BITMAP
1FF8
3030
3060
00C0
0180
0600
0600
0C00
1800
60C0
C0C0
FFC0
ENDCHAR
STARTCHAR bracketleft
ENCODING 91
SWIDTH 867 0
DWIDTH 13 0
BBX 8 15 4 -3
BITMAP
1F
18
18
18
30
30
30
30
60
60
60
60
C0
C0
F8
ENDCHAR
STARTCHAR backslash
ENCODING 92
SWIDTH 1182 0
DWIDTH 13 0
BBX 14 11 0 0
BITMAP
3000
1800
0C00
0600
0600
0300
0180
00C0
00C0
0060
0030
ENDCHAR
STARTCHAR bracketright
ENCODING 93
SWIDTH 867 0
DWIDTH 13 0
BBX 8 15 3 -3
BITMAP
1F
03
03
03
06
06
06
06
0C
0C
0C
0C
18
18
F8
ENDCHAR
STARTCHAR asciicircum
ENCODING 94
SWIDTH 4333 0
DWIDTH 13 0
BBX 6 3 5 10
BITMAP
30
78
CC
ENDCHAR
STARTCHAR underscore
ENCODING 95
SWIDTH 13000 0
DWIDTH 13 0
BBX 13 1 -1 -2
BITMAP
FFF8
ENDCHAR
STARTCHAR grave
ENCODING 96
SWIDTH 4333 0
DWIDTH 13 0
BBX 4 3 6 10
BITMAP
C0
60
30
ENDCHAR
STARTCHAR a
ENCODING 97
SWIDTH 1444 0
DWIDTH 13 0
BBX 12 9 1 0
BITMAP
0FC0
1860
00C0
0FC0
38C0
60C0
C180
C180
7FC0
ENDCHAR
STARTCHAR b
ENCODING 98
SWIDTH 1000 0
DWIDTH 13 0
BBX 13 13 1 0
BITMAP
1C00
0C00
1800
1800
1FC0
1C60
3060
3060
3060
3060
60C0
7180
FF00
ENDCHAR
STARTCHAR c
ENCODING 99
SWIDTH 1444 0
DWIDTH 13 0
BBX 11 9 2 0
BITMAP
0FE0
18E0
60C0
6000
6000
6000
C000
6180
3F00
ENDCHAR
STARTCHAR d
ENCODING 100
SWIDTH 1000 0
DWIDTH 13 0
BBX 13 13 1 0
BITMAP
0070
0030
0060
0060
0FE0
18E0
60C0
60C0
60C0
60C0
C180
6380
3FC0
ENDCHAR
STARTCHAR e
ENCODING 101
SWIDTH 1444 0
DWIDTH 13 0
BBX 12 9 1 0
BITMAP
0FC0
1860
6060
6060
7FE0
6000
C0C0
6180
3F00
ENDCHAR
STARTCHAR f
ENCODING 102
SWIDTH 1000 0
DWIDTH 13 0
BBX 10 13 3 0
BITMAP
03C0
0600
0C00
0C00
3F80
0C00
1800
1800
1800
1800
3000
3000
FE00
ENDCHAR
STARTCHAR g
ENCODING 103
SWIDTH 1000 0
DWIDTH 13 0
BBX 13 13 0 -4
BITMAP
07F8
0C70
3060
3060
3060
3060
60C0
31C0
1FC0
00C0
0180
0300
7E00
ENDCHAR
STARTCHAR h
ENCODING 104
SWIDTH 1000 0
DWIDTH 13 0
BBX 13 13 1 0
BITMAP
1C00
0C00
1800
1800
1FC0
1C60
30C0
30C0
30C0
30C0
6180
6180
F3C0
ENDCHAR
STARTCHAR i
ENCODING 105
SWIDTH 1000 0
DWIDTH 13 0
BBX 11 13 2 0
BITMAP
0300
0300
0000
0000
1E00
0600
0C00
0C00
0C00
0C00
1800
1800
FF00
ENDCHAR
STARTCHAR j
ENCODING 106
SWIDTH 765 0
DWIDTH 13 0
BBX 10 17 1 -4
BITMAP
00C0
00C0
0000
0000
1F80
0180
0300
0300
0300
0300
0600
0600
0600
0600
0C00
1800
F000
ENDCHAR
STARTCHAR k
ENCODING 107
SWIDTH 1000 0
DWIDTH 13 0
BBX 14 13 1 0
BITMAP
1C00
0C00
1800
1800
19F0
18C0
3300
3600
3E00
3B00
6300
6180
E0E0
ENDCHAR
STARTCHAR l
ENCODING 108
SWIDTH 1000 0
DWIDTH 13 0
BBX 11 13 2 0
BITMAP
0F00
0300
0600
0600
0600
0600
0C00
0C00
0C00
0C00
1800
1800
FF00
ENDCHAR
STARTCHAR m
ENCODING 109
SWIDTH 1444 0
DWIDTH 13 0
BBX 14 9 0 0
BITMAP
3F70
1DD8
3330
3330
3330
3330
6660
6660
F770
ENDCHAR
STARTCHAR n
ENCODING 110
SWIDTH 1444 0
DWIDTH 13 0
BBX 12 9 1 0
BITMAP
3FC0
1C60
30C0
30C0
30C0
30C0
6180
6180
F3C0
ENDCHAR
STARTCHAR o
ENCODING 111
SWIDTH 1444 0
DWIDTH 13 0
BBX 12 9 1 0
BITMAP
0FC0
1860
6060
6060
6060
6060
C0C0
6180
3F00
ENDCHAR
STARTCHAR p
ENCODING 112
SWIDTH 1000 0
DWIDTH 13 0
BBX 13 13 0 -4
BITMAP
1FE0
0E30
1830
1830
1830
1830
3060
38C0
3F80
3000
6000
6000
F800
ENDCHAR
STARTCHAR q
ENCODING 113
SWIDTH 1000 0
DWIDTH 13 0
BBX 13 13 0 -4
BITMAP
07F8
0C70
3060
3060
3060
3060
60C0
31C0
1FC0
00C0
0180
0180
07C0
ENDCHAR
STARTCHAR r
ENCODING 114
SWIDTH 1444 0
DWIDTH 13 0
BBX 12 9 1 0
BITMAP
3FE0
0E30
1800
1800
1800
1800
3000
3000
FE00
ENDCHAR
STARTCHAR s
ENCODING 115
SWIDTH 1444 0
DWIDTH 13 0
BBX 12 9 1 0
BITMAP
0FF0
1870
6060
3000
1F80
00C0
C0C0
E180
FF00
ENDCHAR
STARTCHAR t
ENCODING 116
SWIDTH 1083 0
DWIDTH 13 0
BBX 11 12 2 0
BITMAP
0600
0C00
0C00
3FC0
0C00
1800
1800
1800
1800
3300
3300
1E00
ENDCHAR
STARTCHAR u
ENCODING 117
SWIDTH 1444 0
DWIDTH 13 0
BBX 12 9 1 0
BITMAP
38E0
1860
30C0
30C0
30C0
30C0
6180
6380
3FC0
ENDCHAR
STARTCHAR v
ENCODING 118
SWIDTH 1444 0
DWIDTH 13 0
BBX 14 9 0 0
BITMAP
3C3C
1818
1860
1860
0CC0
0CC0
0F00
0F00
0600
ENDCHAR
STARTCHAR w
ENCODING 119
SWIDTH 1444 0
DWIDTH 13 0
BBX 14 9 0 0
BITMAP
3C3C
1818
3330
3330
1FE0
1FE0
1980
1980
1980
ENDCHAR
STARTCHAR x
ENCODING 120
SWIDTH 1444 0
DWIDTH 13 0
BBX 14 9 0 0
BITMAP
3E7C
0C30
0CC0
0780
0300
0780
1980
30C0
F9F0
ENDCHAR
STARTCHAR y
ENCODING 121
SWIDTH 1000 0
DWIDTH 13 0
BBX 15 13 -1 -4
BITMAP
1E1E
0C0C
0C30
0C30
0660
0660
0780
0780
0300
0300
0C00
0C00
3E00
ENDCHAR
STARTCHAR z
ENCODING 122
SWIDTH 1444 0
DWIDTH 13 0
BBX 12 9 1 0
BITMAP
3FF0
3060
6180
0300
0600
0C00
30C0
60C0
FFC0
ENDCHAR
STARTCHAR braceleft
ENCODING 123
SWIDTH 867 0
DWIDTH 13 0
BBX 9 15 3 -3
BITMAP
0380
0600
0600
0600
0C00
0C00
0C00
3800
1800
1800
1800
1800
3000
3000
1C00
ENDCHAR
STARTCHAR bar
ENCODING 124
SWIDTH 813 0
DWIDTH 13 0
BBX 6 16 4 -4
BITMAP
0C
18
18
18
18
30
30
30
30
60
60
60
60
C0
C0
C0
ENDCHAR
STARTCHAR braceright
ENCODING 125
SWIDTH 867 0
DWIDTH 13 0
BBX 9 15 3 -3
BITMAP
1C00
0600
0600
0600
0C00
0C00
0C00
0700
1800
1800
1800
1800
3000
3000
E000
ENDCHAR
STARTCHAR asciitilde
ENCODING 126
SWIDTH 4333 0
DWIDTH 13 0
BBX 10 3 3 10
BITMAP
78C0
CCC0
C780
ENDCHAR
STARTCHAR bullet
ENCODING 149
SWIDTH 2600 0
DWIDTH 13 0
BBX 7 5 4 2
BITMAP
3C
7E
FC
FC
78
ENDCHAR
STARTCHAR space
ENCODING 154
SWIDTH 684 0
DWIDTH 13 0
BBX 0 0 -1 0
BITMAP
ENDCHAR
STARTCHAR degree
ENCODING 156
SWIDTH 2600 0
DWIDTH 13 0
BBX 7 5 5 8
BITMAP
3C
66
CC
CC
78
ENDCHAR
STARTCHAR twosuperior
ENCODING 157
SWIDTH 2167 0
DWIDTH 13 0
BBX 7 6 4 7
BITMAP
3C
66
06
78
C0
FC
ENDCHAR
STARTCHAR periodcentered
ENCODING 158
SWIDTH 6500 0
DWIDTH 13 0
BBX 3 2 5 5
BITMAP
E0
E0
ENDCHAR
STARTCHAR afii10071
ENCODING 163
SWIDTH 1182 0
DWIDTH 13 0
BBX 12 11 1 0
BITMAP
1CE0
0000
0FC0
1860
6060
6060
7FE0
6000
C0C0
6180
3F00
ENDCHAR
STARTCHAR afii10023
ENCODING 179
SWIDTH 929 0
DWIDTH 13 0
BBX 14 14 0 0
BITMAP
0E38
0000
1FFC
0C18
0C18
0C00
0C60
1FC0
18C0
1800
1800
3060
3060
FFE0
ENDCHAR
STARTCHAR copyright
ENCODING 191
SWIDTH 1000 0
DWIDTH 13 0
BBX 15 13 0 -1
BITMAP
07F8
0C0C
300C
33EC
363C
360C
6C18
6C18
6C78
67D8
C030
6060
3FC0
ENDCHAR
STARTCHAR afii10096
ENCODING 192
SWIDTH 1444 0
DWIDTH 13 0
BBX 14 9 0 0
BITMAP
3CF0
1998
3618
3618
3E18
3618
6C30
6660
F3C0
ENDCHAR
STARTCHAR afii10065
ENCODING 193
SWIDTH 1444 0
DWIDTH 13 0
BBX 12 9 1 0
BITMAP
0FC0
1860
00C0
0FC0
38C0
60C0
C180
C180
7FC0
ENDCHAR
STARTCHAR afii10066
ENCODING 194
SWIDTH 1000 0
DWIDTH 13 0
BBX 13 13 1 0
BITMAP
0038
07E0
1800
3000
3FC0
3860
6060
6060
6060
6060
C0C0
6180
3F00
ENDCHAR
STARTCHAR afii10088
ENCODING 195
SWIDTH 1182 0
DWIDTH 13 0
BBX 13 11 1 -2
BITMAP
3CF0
1860
1860
1860
30C0
30C0
30C0
30C0
FFE0
0060
0060
ENDCHAR
STARTCHAR afii10069
ENCODING 196
SWIDTH 1182 0
DWIDTH 13 0
BBX 13 11 0 -2
BITMAP
1FF8
0C30
0C30
0C30
1860
1860
1860
3060
FFE0
C060
C060
ENDCHAR
STARTCHAR afii10070
ENCODING 197
SWIDTH 1444 0
DWIDTH 13 0
BBX 12 9 1 0
BITMAP
0FC0
1860
6060
6060
7FE0
6000
C0C0
6180
3F00
ENDCHAR
STARTCHAR afii10086
ENCODING 198
SWIDTH 867 0
DWIDTH 13 0
BBX 13 15 0 -4
BITMAP
03C0
0180
07E0
0DB0
3330
3330
3330
3330
6660
36C0
1F80
0600
0C00
0C00
1E00
ENDCHAR
STARTCHAR afii10068
ENCODING 199
SWIDTH 1444 0
DWIDTH 13 0
BBX 12 9 1 0
BITMAP
3FF0
0C30
1860
1800
1800
1800
3000
3000
FC00
ENDCHAR
STARTCHAR afii10087
ENCODING 200
SWIDTH 1444 0
DWIDTH 13 0
BBX 12 9 1 0
BITMAP
3CF0
1860
1980
0F00
0600
0F00
3300
6180
F3C0
ENDCHAR
STARTCHAR afii10074
ENCODING 201
SWIDTH 1444 0
DWIDTH 13 0
BBX 12 9 1 0
BITMAP
3CF0
1860
31C0
33C0
36C0
3CC0
7180
6180
F3C0
ENDCHAR
STARTCHAR afii10075
ENCODING 202
SWIDTH 1083 0
DWIDTH 13 0
BBX 13 12 1 0
BITMAP
0660
0780
0000
3CF0
1860
31C0
33C0
36C0
3CC0
7180
6180
F3C0
ENDCHAR
STARTCHAR afii10076
ENCODING 203
SWIDTH 1444 0
DWIDTH 13 0
BBX 13 9 1 0
BITMAP
3CF0
18C0
3300
3600
3E00
3B00
6300
6180
F0E0
ENDCHAR
STARTCHAR afii10077
ENCODING 204
SWIDTH 1444 0
DWIDTH 13 0
BBX 13 9 0 0
BITMAP
0FF8
0630
0C60
0C60
0C60
0C60
18C0
D8C0
71E0
ENDCHAR
STARTCHAR afii10078
ENCODING 205
SWIDTH 1444 0
DWIDTH 13 0
BBX 14 9 0 0
BITMAP
381C
1C38
3CF0
37B0
3330
3330
6060
6060
F0F0
ENDCHAR
STARTCHAR afii10079
ENCODING 206
SWIDTH 1444 0
DWIDTH 13 0
BBX 12 9 1 0
BITMAP
3CF0
1860
30C0
30C0
3FC0
30C0
6180
6180
F3C0
ENDCHAR
STARTCHAR afii10080
ENCODING 207
SWIDTH 1444 0
DWIDTH 13 0
BBX 12 9 1 0
BITMAP
0FC0
1860
6060
6060
6060
6060
C0C0
6180
3F00
ENDCHAR
STARTCHAR afii10081
ENCODING 208
SWIDTH 1444 0
DWIDTH 13 0
BBX 12 9 1 0
BITMAP
3FF0
1860
30C0
30C0
30C0
30C0
6180
6180
F3C0
ENDCHAR
STARTCHAR afii10097
ENCODING 209
SWIDTH 1444 0
DWIDTH 13 0
BBX 13 9 0 0
BITMAP
0FF8
1830
3060
3060
1FE0
0660
18C0
30C0
F3E0
ENDCHAR
STARTCHAR afii10082
ENCODING 210
SWIDTH 1000 0
DWIDTH 13 0
BBX 13 13 0 -4
BITMAP
1FE0
0E30
1830
1830
1830
1830
3060
38C0
3F80
3000
6000
6000
F800
ENDCHAR
STARTCHAR afii10083
ENCODING 211
SWIDTH 1444 0
DWIDTH 13 0
BBX 11 9 2 0
BITMAP
0FE0
18E0
60C0
6000
6000
6000
C000
6180
3F00
ENDCHAR
STARTCHAR afii10084
ENCODING 212
SWIDTH 1444 0
DWIDTH 13 0
BBX 12 9 1 0
BITMAP
3FF0
3330
0600
0600
0600
0600
0C00
0C00
3F00
ENDCHAR
STARTCHAR afii10085
ENCODING 213
SWIDTH 1000 0
DWIDTH 13 0
BBX 15 13 -1 -4
BITMAP
1E1E
0C0C
0C18
0C30
0630
0660
06C0
0780
0380
0300
0600
6C00
3800
ENDCHAR
STARTCHAR afii10072
ENCODING 214
SWIDTH 1444 0
DWIDTH 13 0
BBX 14 9 0 0
BITMAP
1FF8
0DB0
1B60
0FC0
0780
0FC0
36C0
6660
EF70
ENDCHAR
STARTCHAR afii10067
ENCODING 215
SWIDTH 1444 0
DWIDTH 13 0
BBX 12 9 1 0
BITMAP
3FC0
1860
30C0
30C0
3FC0
3060
60C0
60C0
FF80
ENDCHAR
STARTCHAR afii10094
ENCODING 216
SWIDTH 1444 0
DWIDTH 13 0
BBX 12 9 1 0
BITMAP
3C00
1800
3000
3F80
30C0
3060
60C0
6180
FF00
ENDCHAR
STARTCHAR afii10093
ENCODING 217
SWIDTH 1444 0
DWIDTH 13 0
BBX 14 9 0 0
BITMAP
3C3C
1818
3030
3F30
31B0
30F0
61E0
6360
FEF0
ENDCHAR
STARTCHAR afii10073
ENCODING 218
SWIDTH 1444 0
DWIDTH 13 0
BBX 12 9 1 0
BITMAP
3FC0
3860
6060
00C0
0F80
00C0
00C0
E180
3F00
ENDCHAR
STARTCHAR afii10090
ENCODING 219
SWIDTH 1444 0
DWIDTH 13 0
BBX 14 9 0 0
BITMAP
3FFC
1998
3330
3330
3330
3330
6660
6660
FFF0
ENDCHAR
STARTCHAR afii10095
ENCODING 220
SWIDTH 1444 0
DWIDTH 13 0
BBX 12 9 1 0
BITMAP
0FC0
1860
6060
0060
0FE0
0060
C0C0
6180
3F00
ENDCHAR
STARTCHAR afii10091
ENCODING 221
SWIDTH 1182 0
DWIDTH 13 0
BBX 14 11 0 -2
BITMAP
3FFC
1998
1998
1998
3330
3330
3330
3330
FFF0
0030
0030
ENDCHAR
STARTCHAR afii10089
ENCODING 222
SWIDTH 1444 0
DWIDTH 13 0
BBX 12 9 1 0
BITMAP
3CF0
1860
30C0
30C0
31C0
1FC0
0180
0180
03C0
ENDCHAR
STARTCHAR afii10092
ENCODING 223
SWIDTH 1444 0
DWIDTH 13 0
BBX 14 9 0 0
BITMAP
3F00
3600
6C00
0FE0
0C30
0C18
1830
1860
7FC0
ENDCHAR
STARTCHAR afii10048
ENCODING 224
SWIDTH 1083 0
DWIDTH 13 0
BBX 15 12 0 0
BITMAP
1E78
1998
1B0C
1B0C
1B0C
3E18
3618
3618
3618
6C30
6660
F3C0
ENDCHAR
STARTCHAR afii10017
ENCODING 225
SWIDTH 1083 0
DWIDTH 13 0
BBX 15 12 0 0
BITMAP
00C0
0180
0180
03C0
03C0
0CC0
0CC0
1FE0
1860
6060
6060
F0F0
ENDCHAR
STARTCHAR afii10018
ENCODING 226
SWIDTH 1083 0
DWIDTH 13 0
BBX 15 12 0 0
BITMAP
1FFC
0C18
0C00
0C00
0C00
1FE0
1830
1818
1818
3030
3060
FFC0
ENDCHAR
STARTCHAR afii10040
ENCODING 227
SWIDTH 929 0
DWIDTH 13 0
BBX 15 14 0 -2
BITMAP
1F3E
0C0C
0C0C
1818
1818
1818
1818
3030
3030
3030
3030
FFF0
0030
0030
ENDCHAR
STARTCHAR afii10021
ENCODING 228
SWIDTH 929 0
DWIDTH 13 0
BBX 15 14 0 -2
BITMAP
0FFE
060C
060C
0C18
0C18
0C18
0C18
1830
1830
1830
3030
FFF0
C030
C030
ENDCHAR
STARTCHAR afii10022
ENCODING 229
SWIDTH 1083 0
DWIDTH 13 0
BBX 14 12 0 0
BITMAP
1FFC
0C18
0C18
0C00
0C60
1FC0
18C0
1800
1800
3060
3060
FFE0
ENDCHAR
STARTCHAR afii10038
ENCODING 230
SWIDTH 1000 0
DWIDTH 13 0
BBX 15 13 0 0
BITMAP
01E0
00C0
07E0
1DB8
1998
318C
6318
6318
3330
3B70
1F80
0600
0F00
ENDCHAR
STARTCHAR afii10020
ENCODING 231
SWIDTH 1083 0
DWIDTH 13 0
BBX 14 12 0 0
BITMAP
1FFC
0C18
0C18
0C00
0C00
1800
1800
1800
1800
3000
3000
FE00
ENDCHAR
STARTCHAR afii10039
ENCODING 232
SWIDTH 1083 0
DWIDTH 13 0
BBX 15 12 0 0
BITMAP
1F3E
1818
0C30
0660
03C0
0300
0300
0780
0CC0
30C0
6060
F9F0
ENDCHAR
STARTCHAR afii10026
ENCODING 233
SWIDTH 1083 0
DWIDTH 13 0
BBX 15 12 0 0
BITMAP
1E1E
1818
1818
1838
1878
31B0
3330
3630
3C30
7060
6060
F0F0
ENDCHAR
STARTCHAR afii10027
ENCODING 234
SWIDTH 929 0
DWIDTH 13 0
BBX 15 14 0 0
BITMAP
0330
01E0
1E1E
1818
1818
1838
1878
31B0
3330
3630
3C30
7060
6060
F0F0
ENDCHAR
STARTCHAR afii10028
ENCODING 235
SWIDTH 1083 0
DWIDTH 13 0
BBX 15 12 0 0
BITMAP
1E7C
1860
18C0
1980
1B00
3C00
3E00
3300
3180
6180
60C0
F070
ENDCHAR
STARTCHAR afii10029
ENCODING 236
SWIDTH 1083 0
DWIDTH 13 0
BBX 15 12 0 0
BITMAP
07FE
0618
0618
0618
0618
0C30
0C30
0C30
0C30
1860
D860
71F0
ENDCHAR
STARTCHAR afii10030
ENCODING 237
SWIDTH 1083 0
DWIDTH 13 0
BBX 15 12 0 0
BITMAP
1C0E
1C38
1C38
1E78
1E78
37B0
37B0
3330
3330
6060
6060
F0F0
ENDCHAR
STARTCHAR afii10031
ENCODING 238
SWIDTH 1083 0
DWIDTH 13 0
BBX 15 12 0 0
BITMAP
1E1E
1818
1818
1818
1818
3FF0
3030
3030
3030
6060
6060
F0F0
ENDCHAR
STARTCHAR afii10032
ENCODING 239
SWIDTH 1083 0
DWIDTH 13 0
BBX 15 12 0 0
BITMAP
03F0
1C38
1818
300C
300C
6018
6018
6018
6018
6060
70E0
1F80
ENDCHAR
STARTCHAR afii10033
ENCODING 240
SWIDTH 1083 0
DWIDTH 13 0
BBX 15 12 0 0
BITMAP
1FFE
1818
1818
1818
1818
3030
3030
3030
3030
6060
6060
F0F0
ENDCHAR
STARTCHAR afii10049
ENCODING 241
SWIDTH 1083 0
DWIDTH 13 0
BBX 14 12 0 0
BITMAP
03FC
0C30
1830
1830
1830
1860
0FE0
0660
0C60
18C0
30C0
E3E0
ENDCHAR
STARTCHAR afii10034
ENCODING 242
SWIDTH 1083 0
DWIDTH 13 0
BBX 14 12 0 0
BITMAP
1FF0
0C30
0C18
0C18
0C18
1860
1FC0
1800
1800
3000
3000
FE00
ENDCHAR
STARTCHAR afii10035
ENCODING 243
SWIDTH 1083 0
DWIDTH 13 0
BBX 14 12 1 0
BITMAP
03FC
1C38
1818
3000
3000
6000
6000
6000
6000
6060
70E0
1F80
ENDCHAR
STARTCHAR afii10036
ENCODING 244
SWIDTH 1083 0
DWIDTH 13 0
BBX 15 12 0 0
BITMAP
1FFE
318C
318C
0180
0180
0300
0300
0300
0300
0600
0600
1F80
ENDCHAR
STARTCHAR afii10037
ENCODING 245
SWIDTH 1083 0
DWIDTH 13 0
BBX 15 12 0 0
BITMAP
1E1E
1818
0C30
0C30
0660
0CC0
0780
0780
0300
0600
6C00
3800
ENDCHAR
STARTCHAR afii10024
ENCODING 246
SWIDTH 1083 0
DWIDTH 13 0
BBX 15 12 0 0
BITMAP
1DEE
1998
1998
0DB0
07E0
0780
0FC0
1B60
1B60
6660
6660
EF70
ENDCHAR
STARTCHAR afii10019
ENCODING 247
SWIDTH 1083 0
DWIDTH 13 0
BBX 15 12 0 0
BITMAP
1FF0
0C30
0C18
0C18
0C30
1FE0
1830
1818
1818
3030
3060
FFC0
ENDCHAR
STARTCHAR afii10046
ENCODING 248
SWIDTH 1083 0
DWIDTH 13 0
BBX 14 12 1 0
BITMAP
1E00
1800
1800
1800
1800
3FC0
3060
3030
3030
6060
60C0
FF80
ENDCHAR
STARTCHAR afii10045
ENCODING 249
SWIDTH 1083 0
DWIDTH 13 0
BBX 15 12 0 0
BITMAP
1E1E
1818
1818
1818
1818
3F30
31B0
30F0
30F0
61E0
6360
FEF0
ENDCHAR
STARTCHAR afii10025
ENCODING 250
SWIDTH 1083 0
DWIDTH 13 0
BBX 13 12 1 0
BITMAP
1FC0
38C0
3060
0060
00C0
0F80
00C0
0060
0060
C0C0
E180
FF00
ENDCHAR
STARTCHAR afii10042
ENCODING 251
SWIDTH 1083 0
DWIDTH 13 0
BBX 15 12 0 0
BITMAP
1FFE
1998
1998
1998
1998
3330
3330
3330
3330
6660
6660
FFF0
ENDCHAR
STARTCHAR afii10047
ENCODING 252
SWIDTH 1083 0
DWIDTH 13 0
BBX 14 12 1 0
BITMAP
07E0
3870
3030
0018
0018
1FF0
0030
0030
0030
C0C0
E1C0
3F00
ENDCHAR
STARTCHAR afii10043
ENCODING 253
SWIDTH 929 0
DWIDTH 13 0
BBX 15 14 0 -2
BITMAP
1FFE
0CCC
0CCC
1998
1998
1998
1998
3330
3330
3330
3330
FFF0
0030
0030
ENDCHAR
STARTCHAR afii10041
ENCODING 254
SWIDTH 1083 0
DWIDTH 13 0
BBX 14 12 0 0
BITMAP
1F7C
1830
1830
1830
1830
30E0
31E0
1F60
0060
00C0
00C0
03E0
ENDCHAR
STARTCHAR afii10044
ENCODING 255
SWIDTH 1083 0
DWIDTH 13 0
BBX 15 12 0 0
BITMAP
1F80
3600
3600
0600
0600
0FE0
0C30
0C18
0C18
1830
1860
7FC0
ENDCHAR
ENDFONT
